<svg xmlns="http://www.w3.org/2000/svg" width="37.783" height="35.333" viewBox="422.55 40.767 37.783 35.333"><path d="M434.144 63.314h1.641l.582-.523c-2.036-2.21-3.262-5.077-3.262-8.196 0-6.957 6.045-12.595 13.503-12.595s13.503 5.638 13.503 12.595c0 6.956-6.045 12.594-13.503 12.594-3.344 0-6.419-1.143-8.787-3.042l-.561.542v1.531l-10.387 9.669-3.095-2.887 10.366-9.688Zm12.464 0c5.173 0 9.348-3.895 9.348-8.72 0-4.824-4.175-8.719-9.348-8.719-5.172 0-9.348 3.895-9.348 8.72 0 4.824 4.176 8.719 9.348 8.719Z" stroke-linejoin="round" stroke-linecap="round" stroke="#000" fill="transparent" data-name="ic_search_24px"/></svg>